<svg width="1200" height="628" viewBox="0 0 1200 628" fill="none" xmlns="http://www.w3.org/2000/svg">
<rect width="1200" height="628" rx="2" fill="#334155"/>
<path d="M150.832 217.7C182.348 217.7 206.443 226.443 223.117 243.93C239.993 261.417 248.432 286.223 248.432 318.35C248.432 350.477 239.993 375.283 223.117 392.77C206.443 410.257 182.348 419 150.832 419H65.4315V217.7H150.832ZM145.647 379.35C162.727 379.35 175.13 374.267 182.857 364.1C190.787 353.73 194.752 338.48 194.752 318.35C194.752 298.22 190.787 283.072 182.857 272.905C175.13 262.535 162.727 257.35 145.647 257.35H117.892V379.35H145.647ZM336.812 217.7V419H284.352V217.7H336.812ZM550.727 217.7V258.265H485.152V419H432.692V258.265H366.812V217.7H550.727ZM633.175 378.435H734.13V419H580.715V217.7H633.175V378.435ZM947.191 419H893.206L879.176 373.555H810.246L795.911 419H743.146L813.906 217.7H876.736L947.191 419ZM820.006 337.87H869.416L844.711 256.435L820.006 337.87ZM970.602 419V217.7H1068.51C1093.31 217.903 1111.61 222.682 1123.41 232.035C1135.2 241.185 1141.1 254.503 1141.1 271.99C1141.1 283.377 1137.74 293.238 1131.03 301.575C1124.32 309.708 1114.05 314.893 1100.23 317.13V317.435C1115.68 319.468 1127.17 324.857 1134.69 333.6C1142.42 342.14 1146.28 352.51 1146.28 364.71C1146.28 381.993 1140.18 395.413 1127.98 404.97C1115.78 414.323 1097.48 419 1073.08 419H970.602ZM1021.23 382.095H1064.24C1073.79 382.095 1080.91 380.163 1085.59 376.3C1090.26 372.437 1092.6 366.845 1092.6 359.525C1092.6 352.408 1090.26 347.02 1085.59 343.36C1080.91 339.497 1073.79 337.565 1064.24 337.565H1021.23V382.095ZM1021.23 300.05H1059.36C1078.06 300.05 1087.42 292.73 1087.42 278.09C1087.42 263.45 1078.06 256.13 1059.36 256.13H1021.23V300.05Z" fill="white"/>
</svg>
